<svg xmlns="http://www.w3.org/2000/svg" viewBox="0 0 1600 1000" role="img" aria-label="Tel Aviv map background">
  <defs>
    <linearGradient id="landFill" x1="0" y1="0" x2="1" y2="1">
      <stop offset="0%" stop-color="#dbe2ea" />
      <stop offset="100%" stop-color="#cbd4de" />
    </linearGradient>
    <linearGradient id="seaFill" x1="0" y1="0" x2="0" y2="1">
      <stop offset="0%" stop-color="#9fb4c9" />
      <stop offset="100%" stop-color="#8ea3b8" />
    </linearGradient>
    <filter id="paperTexture" x="-10%" y="-10%" width="120%" height="120%">
      <feTurbulence type="fractalNoise" baseFrequency="0.58" numOctaves="2" stitchTiles="stitch" />
      <feColorMatrix type="saturate" values="0" />
      <feComponentTransfer>
        <feFuncA type="table" tableValues="0 0.06" />
      </feComponentTransfer>
    </filter>
  </defs>

  <rect width="1600" height="1000" fill="url(#landFill)" />

  <path
    d="M0 0 L295 0 C265 160 250 335 248 510 C244 700 250 860 292 1000 L0 1000 Z"
    fill="url(#seaFill)"
  />
  <path
    d="M292 0 C252 200 230 356 228 515 C224 710 236 865 275 1000"
    fill="none"
    stroke="#6f8398"
    stroke-width="8"
    opacity="0.58"
  />

  <g fill="#b9c8b3" opacity="0.8">
    <rect x="1085" y="135" width="190" height="122" rx="12" />
    <rect x="880" y="530" width="176" height="112" rx="12" />
    <rect x="1185" y="690" width="208" height="122" rx="14" />
  </g>

  <g stroke-linecap="round" fill="none">
    <g stroke="#f8fbff" stroke-width="12" opacity="0.95">
      <path d="M328 88 L1532 268" />
      <path d="M318 164 L1510 338" />
      <path d="M308 240 L1492 408" />
      <path d="M300 316 L1470 482" />
      <path d="M296 395 L1452 554" />
      <path d="M304 475 L1430 632" />
      <path d="M322 556 L1405 714" />
      <path d="M350 638 L1372 794" />
      <path d="M384 720 L1338 874" />
      <path d="M424 800 L1298 950" />
    </g>

    <g stroke="#f2f7fb" stroke-width="9" opacity="0.94">
      <path d="M402 52 L516 964" />
      <path d="M510 44 L625 970" />
      <path d="M620 48 L736 978" />
      <path d="M734 56 L850 982" />
      <path d="M850 70 L964 986" />
      <path d="M968 90 L1080 990" />
      <path d="M1088 116 L1198 992" />
      <path d="M1208 148 L1314 994" />
      <path d="M1328 186 L1430 996" />
    </g>

    <g stroke="#d68a57" stroke-width="6.2" opacity="0.82">
      <path d="M356 120 L604 310 L846 224 L1110 360 L1390 274" />
      <path d="M336 520 L590 680 L856 592 L1130 724 L1372 660" />
      <path d="M570 86 L692 360 L830 578 L986 860" />
    </g>

    <g stroke="#6c7c8f" stroke-width="3" opacity="0.5">
      <path d="M332 216 L1480 384" />
      <path d="M322 290 L1466 454" />
      <path d="M312 366 L1450 526" />
      <path d="M306 444 L1436 602" />
      <path d="M314 524 L1416 680" />
      <path d="M332 604 L1390 758" />
      <path d="M356 684 L1362 836" />
      <path d="M388 764 L1326 914" />
      <path d="M460 112 L564 948" />
      <path d="M574 104 L678 954" />
      <path d="M690 110 L792 960" />
      <path d="M806 122 L904 968" />
      <path d="M924 142 L1016 974" />
      <path d="M1044 170 L1128 980" />
      <path d="M1164 204 L1236 984" />
      <path d="M1284 244 L1346 986" />
    </g>
  </g>

  <g font-family="Arial, Helvetica, sans-serif" font-weight="700" fill="#637587" opacity="0.62">
    <text x="1024" y="300" font-size="34">TEL AVIV</text>
    <text x="72" y="110" font-size="28">MEDITERRANEAN SEA</text>
  </g>

  <rect width="1600" height="1000" fill="#ffffff" filter="url(#paperTexture)" opacity="0.22" />
</svg>
