<svg xmlns="http://www.w3.org/2000/svg" viewBox="0 0 1600 1000" role="img" aria-label="Tel Aviv grayscale map background zoomed out">
  <defs>
    <linearGradient id="land" x1="0" y1="0" x2="1" y2="1">
      <stop offset="0%" stop-color="#dde0e3" />
      <stop offset="100%" stop-color="#d4d7db" />
    </linearGradient>
    <linearGradient id="sea" x1="0" y1="0" x2="1" y2="1">
      <stop offset="0%" stop-color="#c1c4c8" />
      <stop offset="100%" stop-color="#b4b8bd" />
    </linearGradient>
    <linearGradient id="fadeBottom" x1="0" y1="0" x2="0" y2="1">
      <stop offset="0%" stop-color="#ffffff" stop-opacity="0" />
      <stop offset="100%" stop-color="#ffffff" stop-opacity="1" />
    </linearGradient>
    <pattern id="blockPattern" width="24" height="24" patternUnits="userSpaceOnUse">
      <rect width="24" height="24" fill="#ebedef" />
      <rect x="1" y="1" width="8" height="6" fill="#e0e3e7" />
      <rect x="11" y="2" width="11" height="5" fill="#dce0e4" />
      <rect x="2" y="9" width="7" height="5" fill="#e2e5e8" />
      <rect x="11" y="9" width="11" height="6" fill="#dde1e5" />
      <rect x="1" y="17" width="9" height="6" fill="#e4e7ea" />
      <rect x="12" y="17" width="10" height="6" fill="#dfe3e7" />
      <path d="M0 8.5 H24 M0 16.5 H24 M9.5 0 V24 M19.5 0 V24" stroke="#cfd4d9" stroke-width="0.8" />
    </pattern>
    <pattern id="fineRoads" width="54" height="54" patternUnits="userSpaceOnUse">
      <path d="M0 12 L54 24 M0 30 L54 42 M8 0 L20 54 M26 0 L38 54 M42 0 L52 54" stroke="#c2c7cd" stroke-width="0.9" fill="none" />
      <path d="M4 52 L50 6" stroke="#c9ced3" stroke-width="0.75" fill="none" />
    </pattern>
    <filter id="paperNoise" x="-10%" y="-10%" width="120%" height="120%">
      <feTurbulence type="fractalNoise" baseFrequency="0.58" numOctaves="2" stitchTiles="stitch" />
      <feColorMatrix type="saturate" values="0" />
      <feComponentTransfer>
        <feFuncA type="table" tableValues="0 0.05" />
      </feComponentTransfer>
    </filter>
  </defs>

  <rect width="1600" height="1000" fill="url(#land)" />
  <path d="M0 0 L248 0 C234 138 250 288 228 438 C200 636 196 836 240 1000 L0 1000 Z" fill="url(#sea)" />
  <path d="M206 0 C176 172 156 322 144 490 C130 692 148 850 190 1000" fill="none" stroke="#878c93" stroke-width="7" opacity="0.62" />

  <rect x="226" y="0" width="1374" height="1000" fill="url(#blockPattern)" />
  <rect x="226" y="0" width="1374" height="1000" fill="url(#fineRoads)" opacity="0.75" />

  <g fill="#8f949b" opacity="0.78">
    <path d="M596 72 L770 76 L820 176 L744 238 L564 204 Z" />
    <path d="M838 96 L1024 112 L1078 206 L996 276 L818 254 L786 174 Z" />
    <path d="M1124 124 L1292 138 L1344 228 L1270 294 L1108 280 L1078 198 Z" />
    <path d="M384 350 L510 370 L560 446 L526 530 L396 516 L340 432 Z" />
    <path d="M944 520 L1096 538 L1142 624 L1076 692 L930 674 L892 596 Z" />
    <path d="M1216 640 L1372 660 L1420 746 L1348 816 L1198 798 L1156 716 Z" />
  </g>

  <g stroke-linecap="round" fill="none">
    <g stroke="#686d74" stroke-width="4.8" opacity="0.86">
      <path d="M240 132 C472 166 700 206 930 242 C1164 278 1380 312 1586 344" />
      <path d="M234 284 C464 324 686 364 910 404 C1146 444 1366 484 1574 524" />
      <path d="M246 446 C478 492 694 534 910 578 C1128 624 1336 668 1548 714" />
      <path d="M270 620 C500 666 708 708 914 752 C1120 794 1318 836 1508 880" />
      <path d="M318 806 C540 846 734 882 926 920 C1118 958 1276 982 1418 1000" />
      <path d="M346 0 C328 242 314 488 286 1000" />
      <path d="M516 0 C498 242 474 494 438 1000" />
      <path d="M694 0 C674 246 648 500 604 1000" />
      <path d="M878 0 C854 254 824 510 772 1000" />
      <path d="M1064 0 C1038 262 1004 520 944 1000" />
      <path d="M1252 0 C1222 268 1184 530 1116 1000" />
      <path d="M1440 0 C1408 274 1366 540 1292 1000" />
    </g>

    <g stroke="#848a91" stroke-width="2.7" opacity="0.8">
      <path d="M256 84 L1588 272" />
      <path d="M248 170 L1578 358" />
      <path d="M240 250 L1564 438" />
      <path d="M236 362 L1548 550" />
      <path d="M234 478 L1532 666" />
      <path d="M240 596 L1512 782" />
      <path d="M258 712 L1486 894" />
      <path d="M280 818 L1444 996" />
      <path d="M286 0 L244 1000" />
      <path d="M404 0 L362 1000" />
      <path d="M582 0 L542 1000" />
      <path d="M760 0 L720 1000" />
      <path d="M938 0 L898 1000" />
      <path d="M1116 0 L1078 1000" />
      <path d="M1296 0 L1258 1000" />
      <path d="M1474 0 L1438 1000" />
    </g>

    <g stroke="#c5cbd1" stroke-width="1.4" opacity="0.82">
      <path d="M270 118 L1592 306" />
      <path d="M264 156 L1586 344" />
      <path d="M258 206 L1578 394" />
      <path d="M252 300 L1564 488" />
      <path d="M246 416 L1548 604" />
      <path d="M244 532 L1534 720" />
      <path d="M248 648 L1510 834" />
      <path d="M262 764 L1482 946" />
      <path d="M300 0 L256 1000" />
      <path d="M356 0 L314 1000" />
      <path d="M440 0 L398 1000" />
      <path d="M524 0 L482 1000" />
      <path d="M608 0 L566 1000" />
      <path d="M692 0 L650 1000" />
      <path d="M776 0 L734 1000" />
      <path d="M860 0 L818 1000" />
      <path d="M944 0 L902 1000" />
      <path d="M1028 0 L986 1000" />
      <path d="M1112 0 L1070 1000" />
      <path d="M1196 0 L1154 1000" />
      <path d="M1280 0 L1238 1000" />
      <path d="M1364 0 L1322 1000" />
      <path d="M1448 0 L1406 1000" />
    </g>
  </g>

  <rect width="1600" height="1000" fill="#ffffff" filter="url(#paperNoise)" opacity="0.17" />
  <rect x="0" y="620" width="1600" height="380" fill="url(#fadeBottom)" />
</svg>
