<svg xmlns="http://www.w3.org/2000/svg" viewBox="0 0 1600 1000" role="img" aria-label="Tel Aviv grayscale map background">
  <defs>
    <linearGradient id="land" x1="0" y1="0" x2="1" y2="1">
      <stop offset="0%" stop-color="#dddfe2" />
      <stop offset="100%" stop-color="#d4d7db" />
    </linearGradient>
    <linearGradient id="sea" x1="0" y1="0" x2="0.8" y2="1">
      <stop offset="0%" stop-color="#8f949b" />
      <stop offset="100%" stop-color="#80858d" />
    </linearGradient>
    <linearGradient id="fadeBottom" x1="0" y1="0" x2="0" y2="1">
      <stop offset="0%" stop-color="#ffffff" stop-opacity="0" />
      <stop offset="100%" stop-color="#ffffff" stop-opacity="1" />
    </linearGradient>
    <filter id="grain" x="-10%" y="-10%" width="120%" height="120%">
      <feTurbulence type="fractalNoise" baseFrequency="0.62" numOctaves="2" stitchTiles="stitch" />
      <feColorMatrix type="saturate" values="0" />
      <feComponentTransfer>
        <feFuncA type="table" tableValues="0 0.05" />
      </feComponentTransfer>
    </filter>
  </defs>

  <rect width="1600" height="1000" fill="url(#land)" />

  <path d="M0 0 L310 0 C286 140 292 274 270 430 C238 646 240 850 294 1000 L0 1000 Z" fill="url(#sea)" />
  <path d="M286 0 C248 178 224 328 212 492 C194 704 206 860 252 1000" fill="none" stroke="#6f747b" stroke-width="8" opacity="0.7" />

  <g fill="#b5b8bc" opacity="0.78">
    <path d="M640 68 L780 66 L818 154 L742 222 L600 180 Z" />
    <path d="M920 268 L1040 294 L1092 364 L1008 438 L882 410 L860 336 Z" />
    <path d="M1145 208 L1238 222 L1286 286 L1240 344 L1146 326 L1112 272 Z" />
    <path d="M700 552 L844 548 L892 620 L850 700 L710 708 L664 636 Z" />
    <path d="M1048 522 L1172 536 L1208 610 L1160 676 L1044 664 L1014 602 Z" />
    <path d="M1240 604 L1370 612 L1420 694 L1372 772 L1248 760 L1200 684 Z" />
  </g>

  <g stroke-linecap="round" fill="none">
    <g stroke="#555a61" stroke-width="10" opacity="0.86">
      <path d="M340 148 L1534 342" />
      <path d="M328 316 L1494 510" />
      <path d="M340 520 L1458 710" />
      <path d="M372 760 L1414 936" />
      <path d="M560 24 L470 992" />
      <path d="M742 18 L654 996" />
      <path d="M914 20 L834 996" />
      <path d="M1098 26 L1016 996" />
      <path d="M1280 46 L1198 996" />
    </g>

    <g stroke="#686d74" stroke-width="5" opacity="0.82">
      <path d="M356 76 L1550 262" />
      <path d="M348 196 L1520 382" />
      <path d="M340 420 L1484 602" />
      <path d="M360 638 L1442 812" />
      <path d="M390 840 L1384 996" />
      <path d="M416 28 L334 996" />
      <path d="M496 26 L422 996" />
      <path d="M648 20 L568 996" />
      <path d="M822 20 L742 996" />
      <path d="M998 24 L914 996" />
      <path d="M1170 30 L1088 996" />
      <path d="M1342 54 L1262 996" />
    </g>

    <g stroke="#8e9399" stroke-width="2.6" opacity="0.9">
      <path d="M392 62 L1558 248" />
      <path d="M384 112 L1548 298" />
      <path d="M376 164 L1538 350" />
      <path d="M364 252 L1516 438" />
      <path d="M358 356 L1496 540" />
      <path d="M352 458 L1478 640" />
      <path d="M364 566 L1460 742" />
      <path d="M382 674 L1428 844" />
      <path d="M412 782 L1388 942" />
      <path d="M438 876 L1302 996" />
      <path d="M372 36 L292 996" />
      <path d="M456 30 L380 996" />
      <path d="M530 26 L454 996" />
      <path d="M612 22 L536 996" />
      <path d="M688 20 L612 996" />
      <path d="M772 20 L698 996" />
      <path d="M856 20 L780 996" />
      <path d="M940 22 L866 996" />
      <path d="M1022 26 L948 996" />
      <path d="M1104 30 L1032 996" />
      <path d="M1184 36 L1116 996" />
      <path d="M1264 44 L1200 996" />
      <path d="M1346 56 L1286 996" />
      <path d="M1428 76 L1370 996" />
    </g>
  </g>

  <rect width="1600" height="1000" fill="#ffffff" filter="url(#grain)" opacity="0.2" />
  <rect x="0" y="640" width="1600" height="360" fill="url(#fadeBottom)" />
</svg>
